<svg width="317" height="57" viewBox="0 0 317 57" fill="none" xmlns="http://www.w3.org/2000/svg">
<rect width="317" height="57" rx="28.5" fill="url(#paint0_linear)"/>
<path d="M71.2 21.27V24.48H75.43V32.73H79.39V13.95H75.43V21.27H71.2ZM72.79 26.91C68.35 25.74 66.43 22.83 66.43 19.95V19.86H71.89V16.74H66.43V13.86H62.47V16.74H57.07V19.86H62.47V19.95C62.47 23.1 60.55 26.28 56.11 27.57L57.97 30.66C61.18 29.73 63.34 27.75 64.54 25.23C65.8 27.42 67.93 29.13 70.99 29.97L72.79 26.91ZM72.19 31.2H68.14V31.59C68.14 34.29 65.17 37.56 59.38 38.4L60.85 41.49C65.29 40.86 68.47 38.82 70.12 36.18C71.77 38.85 74.95 40.86 79.45 41.49L80.89 38.4C75.01 37.59 72.19 34.47 72.19 31.59V31.2ZM97.4945 36.81H112.615V29.7H93.5345V32.61H108.715V34.08H93.5645V41.37H113.335V38.4H97.4945V36.81ZM105.145 25.14V23.4H112.735V20.31H97.7345V17.97H112.525V14.88H93.8045V23.4H101.185V25.14H90.6845V28.26H115.645V25.14H105.145ZM141.832 13.95H138.082V30.54H141.832V13.95ZM126.532 25.62H122.932V19.29H126.532V25.62ZM130.192 23.91H132.532V29.7H136.222V14.46H132.532V20.73H130.192V16.32H119.242V28.59H130.192V23.91ZM132.442 38.55C128.902 38.55 126.892 37.83 126.892 36.3C126.892 34.77 128.902 34.05 132.442 34.05C135.952 34.05 137.992 34.77 137.992 36.3C137.992 37.83 135.952 38.55 132.442 38.55ZM132.442 31.02C126.652 31.02 122.932 33.03 122.932 36.3C122.932 39.6 126.652 41.58 132.442 41.58C138.232 41.58 141.952 39.6 141.952 36.3C141.952 33.03 138.232 31.02 132.442 31.02ZM164.81 13.92V41.64H168.77V13.92H164.81ZM153.92 15.87C149.75 15.87 146.66 19.65 146.66 25.71C146.66 31.8 149.75 35.61 153.92 35.61C158.09 35.61 161.18 31.8 161.18 25.71C161.18 19.65 158.09 15.87 153.92 15.87ZM153.92 19.44C155.96 19.44 157.37 21.63 157.37 25.71C157.37 29.82 155.96 32.01 153.92 32.01C151.88 32.01 150.47 29.82 150.47 25.71C150.47 21.63 151.88 19.44 153.92 19.44ZM192.844 21.15V24.3H199.414V34.05H203.374V13.95H199.414V21.15H192.844ZM195.664 26.49C192.574 27.03 189.784 27.24 185.824 27.27V18.99H194.404V15.84H181.894V30.45H184.114C189.184 30.45 192.394 30.3 195.964 29.61L195.664 26.49ZM189.124 38.01V32.43H185.164V41.19H204.004V38.01H189.124ZM218.552 19.86H224.252V16.59H208.772V19.86H214.532V21.39C214.532 26.1 212.282 31.17 207.662 33.24L209.912 36.39C213.152 34.92 215.372 31.89 216.602 28.29C217.832 31.62 220.022 34.32 223.232 35.7L225.392 32.58C220.772 30.66 218.552 25.89 218.552 21.39V19.86ZM226.802 13.95V41.58H230.762V13.95H226.802ZM237 16.8V19.95H246.21C245.64 26.07 242.58 30.39 235.53 33.78L237.6 36.9C247.41 32.16 250.26 25.26 250.26 16.8H237ZM254.49 13.92V41.55H258.48V13.92H254.49Z" fill="white"/>
<defs>
<linearGradient id="paint0_linear" x1="49.2746" y1="-11.5" x2="200.523" y2="143.764" gradientUnits="userSpaceOnUse">
<stop stop-color="#0066FF"/>
<stop offset="1" stop-color="#3284FF"/>
</linearGradient>
</defs>
</svg>
