<svg width="255" height="57" viewBox="0 0 255 57" fill="none" xmlns="http://www.w3.org/2000/svg">
<rect width="255" height="57" rx="28.5" fill="url(#paint0_linear)"/>
<path d="M80.17 17.4H70.72V14.22H66.76V17.4H57.37V20.55H80.17V17.4ZM63.43 27.12C63.43 25.56 65.29 24.78 68.71 24.78C72.19 24.78 74.05 25.56 74.05 27.12C74.05 28.71 72.19 29.43 68.71 29.43C65.29 29.43 63.43 28.71 63.43 27.12ZM70.72 35.61V32.43C75.31 31.98 78.1 30.09 78.1 27.12C78.1 23.73 74.5 21.72 68.71 21.72C62.98 21.72 59.35 23.73 59.35 27.12C59.35 30.09 62.17 32.01 66.76 32.43V35.61H56.29V38.82H81.34V35.61H70.72ZM107.978 23.76C101.708 22.89 98.5277 19.29 98.5277 16.08V14.76H94.2977V16.08C94.2977 19.32 91.1477 22.89 84.8477 23.76L86.3477 26.94C91.1777 26.22 94.6577 23.97 96.4277 21C98.1977 23.97 101.648 26.22 106.478 26.94L107.978 23.76ZM108.878 28.98H83.9177V32.19H94.3277V41.61H98.2877V32.19H108.878V28.98ZM125.945 35.31V31.2H134.315V28.02H118.295V24.93H133.685V15.72H114.335V18.87H129.785V21.84H114.365V31.2H121.985V35.31H111.485V38.55H136.505V35.31H125.945ZM147.14 16.77V19.98H156.17C155.45 26.1 152.03 30.48 145.61 33.78L147.83 36.81C157.01 32.16 160.16 25.05 160.16 16.77H147.14ZM171.38 24.48H167.51V13.92H163.55V41.52H167.51V27.75H171.38V24.48ZM175.008 16.8V19.95H184.218C183.648 26.07 180.588 30.39 173.538 33.78L175.608 36.9C185.418 32.16 188.268 25.26 188.268 16.8H175.008ZM192.498 13.92V41.55H196.488V13.92H192.498Z" fill="white"/>
<defs>
<linearGradient id="paint0_linear" x1="39.6373" y1="-11.5" x2="188.207" y2="111.185" gradientUnits="userSpaceOnUse">
<stop stop-color="#0066FF"/>
<stop offset="1" stop-color="#3284FF"/>
</linearGradient>
</defs>
</svg>
